<?xml version="1.0" encoding="utf-8"?>
<!-- Generator: Adobe Illustrator 23.0.4, SVG Export Plug-In . SVG Version: 6.00 Build 0)  -->
<svg version="1.1" id="Layer_1" xmlns="http://www.w3.org/2000/svg" xmlns:xlink="http://www.w3.org/1999/xlink" x="0px" y="0px"
	 viewBox="0 0 109.7 109.7" style="enable-background:new 0 0 109.7 109.7;" xml:space="preserve">
<style type="text/css">
	.st0{fill:#3FBCC3;}
	.st1{fill:#FFFFFF;}
</style>
<title>socialMediaIcons</title>
<path class="st0" d="M109.3,54.7c0.1,30.1-24.3,54.5-54.4,54.6S0.4,85,0.3,54.9S24.6,0.4,54.7,0.3c0.1,0,0.2,0,0.3,0
	C84.9,0.6,109.1,24.8,109.3,54.7z M34.8,50c-3.2,0-6.2,0.2-9.1,0c-3.4-0.3-4.2,1.3-4.1,4.4c0.2,7.4-0.1,14.9,0.1,22.3
	S25.7,88,33.1,88c14.9,0.1,29.8,0.1,44.6,0c7.4,0,11.6-4.2,11.8-11.7c0.2-4.9,0-9.9,0-14.9c0-12.3,0-12.3-12.3-11.4
	c-0.5,0.1-0.9,0.3-1.3,0.5C74.4,66,67.2,74.4,55.5,74.4S36.7,66.2,34.8,50z M21.8,42.8c3.7,0,6.6-0.2,9.6,0c4.2,0.5,8.5-1,11.4-4.1
	c6.6-6.6,19-6.4,25.8,0.4c3.2,3.2,6.5,3.8,10.6,3.8c11.3-0.2,11.3,0,10.4-11.5c-0.5-6.4-4.3-10.9-10.6-11c-15.6-0.3-31.1-0.2-46.7,0
	c-5.7,0.1-9.9,3.8-10.3,8.9C21.5,33.4,21.8,37.7,21.8,42.8L21.8,42.8z M55.5,66.9c6.9,0,12.6-5.6,12.6-12.6
	c0.2-6.8-5.2-12.5-12.1-12.7c-0.1,0-0.2,0-0.3,0c-6.9-0.2-12.7,5.2-12.9,12.1c0,0.2,0,0.4,0,0.6C42.9,61.2,48.5,66.8,55.5,66.9z"/>
<path class="st1" d="M34.7,49.9c1.8,16.4,9,24.6,20.8,24.6s19.1-8.5,20.6-24c0.4-0.2,0.9-0.4,1.3-0.5c12.4-1,12.4-1,12.4,11.4
	c0,5,0.1,10,0,15c-0.3,7.5-4.4,11.7-11.9,11.8c-15,0.1-29.9,0.1-44.9,0c-7.4-0.1-11.4-4-11.5-11.5s0.1-15-0.1-22.5
	c-0.1-3.1,0.8-4.7,4.2-4.4C28.5,50.1,31.5,49.9,34.7,49.9z"/>
<path class="st1" d="M21.6,42.6c0-5.1-0.3-9.4,0.1-13.7c0.5-5.1,4.7-8.9,10.4-9c15.7-0.2,31.3-0.2,47,0c6.3,0.1,10.2,4.6,10.7,11
	c0.9,11.5,0.9,11.4-10.5,11.6c-4.1,0-7.4-0.6-10.6-3.8c-6.8-6.8-19.3-7-25.9-0.4c-2.9,3.2-7.2,4.7-11.5,4.2
	C28.3,42.5,25.3,42.6,21.6,42.6z"/>
<path class="st1" d="M55.5,67c-7-0.1-12.7-5.7-12.8-12.7s5.5-12.7,12.4-12.8c0.2,0,0.4,0,0.6,0c6.9,0,12.5,5.6,12.5,12.5
	c0,0.1,0,0.2,0,0.3C68.1,61.3,62.5,66.9,55.5,67z"/>
<circle class="st0" cx="78.8" cy="29.8" r="4"/>
</svg>
