<?xml version="1.0" encoding="utf-8"?>
<!-- Generator: Adobe Illustrator 23.0.4, SVG Export Plug-In . SVG Version: 6.00 Build 0)  -->
<svg version="1.1" id="Layer_1" xmlns="http://www.w3.org/2000/svg" xmlns:xlink="http://www.w3.org/1999/xlink" x="0px" y="0px"
	 viewBox="0 0 109.7 109.7" style="enable-background:new 0 0 109.7 109.7;" xml:space="preserve">
<style type="text/css">
	.st0{fill:#FFFFFF;}
	.st1{fill:#3FBCC3;}
</style>
<title>socialMediaIcons</title>
<circle class="st0" cx="54.8" cy="54.8" r="45"/>
<path class="st1" d="M54.8,0.3C24.7,0.3,0.3,24.7,0.3,54.8s24.4,54.5,54.5,54.5s54.5-24.4,54.5-54.5l0,0
	C109.3,24.8,84.9,0.4,54.8,0.3z M82.5,43.9c0.9,18.2-12.7,38.6-37.2,38.6c-7.1-0.1-14-2.1-20-5.9c7,0.9,14-1.1,19.5-5.4
	c-5.9,0-10.4-4.1-12.3-9.1c1.9,0.5,4,0.5,5.9,0c-6.2-0.9-10.8-6.4-10.5-12.7c1.9,0.9,3.9,1.5,5.9,1.8c-5.7-3.8-7.4-11.3-4.1-17.3
	c6.6,8.2,16.4,13.1,26.8,13.6C55,40.6,59.3,33.7,66.2,32c1-0.2,2.1-0.4,3.2-0.4c3.6-0.1,7.1,1.4,9.5,4.1c2.9-0.5,5.7-1.6,8.2-3.2
	c-0.9,3.2-3.2,5.5-5.9,7.3c2.5-0.3,5-1,7.3-2.3C86.8,40,84.8,42.2,82.5,43.9z"/>
</svg>
